<svg width="88" height="27" viewBox="0 0 88 27" fill="none" xmlns="http://www.w3.org/2000/svg">
<path d="M11.2374 0.776756C10.933 0.57394 10.5688 0.480689 10.2044 0.51233L0.770259 1.33206C0.559907 1.35042 0.364088 1.447 0.221479 1.60272C0.0788703 1.75844 -0.000159079 1.96197 2.40416e-07 2.17312V12.0466C2.40416e-07 12.3946 0.113449 12.7341 0.322435 13.013L2.68268 16.1606C2.76796 16.274 2.8804 16.364 3.00965 16.4225C3.13891 16.4809 3.2808 16.5059 3.42223 16.495L14.3858 15.6514C14.5977 15.635 14.7956 15.5394 14.94 15.3834C15.0844 15.2275 15.1646 15.0228 15.1647 14.8103V3.82367C15.1646 3.69187 15.132 3.5621 15.0699 3.44589C15.0076 3.32968 14.9177 3.23062 14.8081 3.15748L11.2374 0.776756ZM10.3358 2.02214C10.3574 2.02075 10.3787 2.02677 10.3964 2.0392L12.7387 3.60018L4.03213 4.29624L2.44555 2.70966L10.3358 2.02214ZM13.648 14.1877L4.50213 14.8913V5.7796L13.648 5.04773V14.1877ZM1.51749 3.92518L2.98635 5.39405V14.0366L1.53625 12.1029C1.52413 12.0866 1.51755 12.0669 1.51749 12.0466V3.92518Z" fill="white"/>
<path d="M11.0816 8.33427C11.2379 8.31674 11.2721 8.16082 11.2379 8.00537L10.0437 8.07456C9.87066 8.0921 9.73235 8.23001 9.76642 8.42052L10.2167 8.47218V10.8583L8.45179 8.16082L7.17127 8.24707C6.9291 8.26461 6.84238 8.48928 6.87697 8.64515L7.30965 8.67975V12.0857L6.99829 12.1721C6.87697 12.2067 6.84238 12.3791 6.87697 12.4483L8.07076 12.3791C8.50392 12.3791 8.50392 12.0683 8.50392 12.0683L7.96698 11.9474V9.37123L9.66315 12.0337C9.87066 12.2929 9.93986 12.3791 10.2167 12.3791C10.3897 12.3791 10.5972 12.3104 10.8223 12.1891V8.38593L11.0816 8.33427Z" fill="white"/>
<path d="M20.54 8.50191H29.4983M25.0192 12.9811V4.02277" stroke="#FFC745" stroke-width="1.27976" stroke-linecap="round" stroke-linejoin="round"/>
<path d="M43.5204 10.1C44.4114 10.1 45.1336 9.37773 45.1336 8.48678C45.1336 7.59591 44.4114 6.87363 43.5204 6.87363C42.6295 6.87363 41.9072 7.59591 41.9072 8.48678C41.9072 9.37773 42.6295 10.1 43.5204 10.1Z" fill="#00D8FF"/>
<path d="M43.5202 5.20682C45.686 5.20682 47.6981 5.51759 49.2152 6.03996C51.0431 6.66919 52.167 7.62304 52.167 8.48683C52.167 9.38687 50.9759 10.4002 49.013 11.0505C47.529 11.5422 45.5761 11.7988 43.5202 11.7988C41.4122 11.7988 39.4161 11.5579 37.9153 11.0451C36.0166 10.3961 34.873 9.36975 34.873 8.48683C34.873 7.63005 35.9461 6.68355 37.7483 6.05526C39.2711 5.52433 41.3331 5.20682 43.5202 5.20682Z" stroke="#00D8FF" stroke-width="0.770532"/>
<path d="M40.6634 6.85621C41.7455 4.98 43.0198 3.39223 44.2302 2.33903C45.6884 1.06991 47.0762 0.57289 47.8244 1.00429C48.6041 1.45393 48.8869 2.99205 48.4697 5.01735C48.1545 6.54846 47.401 8.3683 46.3739 10.1494C45.3207 11.9755 44.1149 13.5844 42.921 14.6278C41.4104 15.9485 39.9497 16.4263 39.1849 15.9853C38.4428 15.5576 38.159 14.155 38.5151 12.2799C38.8159 10.6954 39.5712 8.75085 40.6634 6.85621Z" stroke="#00D8FF" stroke-width="0.770532"/>
<path d="M40.6665 10.1542C39.5813 8.28009 38.8426 6.38277 38.5343 4.80816C38.163 2.91093 38.4254 1.46039 39.1729 1.0277C39.952 0.576676 41.4257 1.09982 42.972 2.47278C44.1411 3.51076 45.3415 5.07215 46.3716 6.85152C47.4277 8.67584 48.2193 10.5241 48.5272 12.0795C48.9168 14.0479 48.6015 15.5519 47.8373 15.9942C47.0959 16.4234 45.7392 15.969 44.2924 14.7241C43.07 13.6723 41.7623 12.0471 40.6665 10.1542Z" stroke="#00D8FF" stroke-width="0.770532"/>
<path d="M57.542 6.26233H66.5003M57.542 10.7415H66.5003" stroke="#FFC745" stroke-width="1.86631" stroke-linecap="round" stroke-linejoin="round"/>
<path d="M83.824 0.287601C83.5004 0.0719377 83.113 -0.0272192 82.7256 0.00642671L72.694 0.87807C72.4704 0.897591 72.2621 1.00028 72.1105 1.16586C71.9589 1.33144 71.8748 1.54786 71.875 1.77238V12.2711C71.875 12.6412 71.9956 13.0022 72.2179 13.2988L74.7276 16.6456C74.8182 16.7662 74.9378 16.8619 75.0752 16.9241C75.2127 16.9862 75.3636 17.0127 75.5139 17.0012L87.1718 16.1042C87.3971 16.0868 87.6075 15.985 87.7611 15.8192C87.9146 15.6534 87.9999 15.4358 87.9999 15.2098V3.52746C87.9999 3.3873 87.9653 3.24932 87.8991 3.12575C87.833 3.00218 87.7374 2.89684 87.6208 2.81908L83.824 0.287601ZM82.8653 1.61184C82.8882 1.61037 82.9109 1.61677 82.9297 1.62998L85.4204 3.28982L76.1625 4.02994L74.4754 2.3429L82.8653 1.61184ZM86.3872 14.5477L76.6622 15.296V5.60722L86.3872 4.82902V14.5477ZM73.4886 3.63539L75.0505 5.19726V14.3871L73.5085 12.331C73.4956 12.3137 73.4886 12.2927 73.4886 12.2711V3.63539Z" fill="white"/>
<path d="M82.5224 8.9453C82.5937 8.93734 82.6092 8.86629 82.5937 8.79544L82.0495 8.82696C81.9707 8.83497 81.9076 8.89781 81.9231 8.98464L82.1283 9.00819V10.0955L81.324 8.86629L80.7405 8.90558C80.6301 8.91359 80.5906 9.01596 80.6064 9.08701L80.8035 9.10274V10.6549L80.6617 10.6942C80.6064 10.71 80.5906 10.7886 80.6064 10.8201L81.1504 10.7886C81.3478 10.7886 81.3478 10.6469 81.3478 10.6469L81.1031 10.5919V9.41786L81.8761 10.6312C81.9707 10.7493 82.0022 10.7886 82.1283 10.7886C82.2071 10.7886 82.3017 10.7573 82.4043 10.702V8.96886L82.5224 8.9453Z" fill="white"/>
<path d="M81.6478 8.07843C82.7493 8.07843 83.7726 8.2365 84.5442 8.50212C85.4739 8.82218 86.0454 9.3073 86.0454 9.74658C86.0454 10.2043 85.4397 10.7197 84.4414 11.0504C83.6866 11.3005 82.6934 11.431 81.6478 11.431C80.5757 11.431 79.5605 11.3085 78.7973 11.0477C77.8316 10.7176 77.25 10.1956 77.25 9.74658C77.25 9.31086 77.7958 8.82946 78.7123 8.50994C79.4868 8.23992 80.5355 8.07843 81.6478 8.07843Z" stroke="#00D8FF" stroke-width="0.39188"/>
<path d="M80.1947 8.91727C80.7451 7.96307 81.3931 7.15555 82.0087 6.61991C82.7504 5.97448 83.4562 5.72171 83.8367 5.9411C84.2332 6.16978 84.3771 6.95204 84.1649 7.98208C84.0046 8.76077 83.6214 9.68629 83.099 10.5922C82.5634 11.5209 81.9501 12.3391 81.3429 12.8698C80.5746 13.5414 79.8318 13.7845 79.4428 13.5602C79.0653 13.3426 78.921 12.6293 79.1021 11.6757C79.2551 10.8699 79.6393 9.88086 80.1947 8.91727Z" stroke="#00D8FF" stroke-width="0.39188"/>
<path d="M80.1977 10.5946C79.6459 9.64142 79.2701 8.67647 79.1133 7.87565C78.9245 6.91074 79.0579 6.17305 79.4381 5.95297C79.8343 5.72361 80.5838 5.98967 81.3702 6.68793C81.9648 7.21585 82.5753 8.00992 83.0992 8.91487C83.6363 9.84269 84.0389 10.7827 84.1955 11.5738C84.3937 12.5749 84.2333 13.3397 83.8447 13.5647C83.4676 13.783 82.7776 13.5519 82.0418 12.9187C81.4201 12.3838 80.755 11.5573 80.1977 10.5946Z" stroke="#00D8FF" stroke-width="0.39188"/>
<path d="M10.3182 19.1856V25.0038H9.63636L6.46591 20.4356H6.40909V25.0038H5.70455V19.1856H6.38636L9.56818 23.7652H9.625V19.1856H10.3182ZM13.4098 25.0947C13.0159 25.0947 12.6702 25.001 12.3729 24.8135C12.0774 24.626 11.8464 24.3637 11.6797 24.0265C11.5149 23.6894 11.4325 23.2955 11.4325 22.8447C11.4325 22.3902 11.5149 21.9934 11.6797 21.6544C11.8464 21.3154 12.0774 21.0521 12.3729 20.8646C12.6702 20.6771 13.0159 20.5834 13.4098 20.5834C13.8037 20.5834 14.1484 20.6771 14.4439 20.8646C14.7412 21.0521 14.9723 21.3154 15.1371 21.6544C15.3037 21.9934 15.3871 22.3902 15.3871 22.8447C15.3871 23.2955 15.3037 23.6894 15.1371 24.0265C14.9723 24.3637 14.7412 24.626 14.4439 24.8135C14.1484 25.001 13.8037 25.0947 13.4098 25.0947ZM13.4098 24.4925C13.709 24.4925 13.9553 24.4157 14.1484 24.2623C14.3416 24.1089 14.4846 23.9072 14.5774 23.6572C14.6702 23.4072 14.7166 23.1364 14.7166 22.8447C14.7166 22.5531 14.6702 22.2813 14.5774 22.0294C14.4846 21.7775 14.3416 21.5739 14.1484 21.4186C13.9553 21.2633 13.709 21.1856 13.4098 21.1856C13.1106 21.1856 12.8643 21.2633 12.6712 21.4186C12.478 21.5739 12.335 21.7775 12.2422 22.0294C12.1494 22.2813 12.103 22.5531 12.103 22.8447C12.103 23.1364 12.1494 23.4072 12.2422 23.6572C12.335 23.9072 12.478 24.1089 12.6712 24.2623C12.8643 24.4157 13.1106 24.4925 13.4098 24.4925ZM18.3082 20.6402V21.2084H16.0469V20.6402H18.3082ZM16.706 19.5947H17.3764V23.7538C17.3764 23.9432 17.4039 24.0853 17.4588 24.18C17.5156 24.2728 17.5876 24.3353 17.6747 24.3675C17.7637 24.3978 17.8575 24.4129 17.956 24.4129C18.0298 24.4129 18.0904 24.4091 18.1378 24.4015C18.1851 24.3921 18.223 24.3845 18.2514 24.3788L18.3878 24.9811C18.3423 24.9981 18.2789 25.0152 18.1974 25.0322C18.116 25.0512 18.0128 25.0606 17.8878 25.0606C17.6984 25.0606 17.5128 25.0199 17.331 24.9385C17.151 24.857 17.0014 24.733 16.8821 24.5663C16.7647 24.3996 16.706 24.1894 16.706 23.9356V19.5947ZM19.3168 25.0038V20.6402H19.9872V25.0038H19.3168ZM19.6577 19.9129C19.527 19.9129 19.4143 19.8684 19.3196 19.7794C19.2268 19.6904 19.1804 19.5834 19.1804 19.4584C19.1804 19.3334 19.2268 19.2264 19.3196 19.1373C19.4143 19.0483 19.527 19.0038 19.6577 19.0038C19.7884 19.0038 19.9001 19.0483 19.9929 19.1373C20.0876 19.2264 20.1349 19.3334 20.1349 19.4584C20.1349 19.5834 20.0876 19.6904 19.9929 19.7794C19.9001 19.8684 19.7884 19.9129 19.6577 19.9129ZM22.9879 25.0947C22.594 25.0947 22.2483 25.001 21.951 24.8135C21.6555 24.626 21.4245 24.3637 21.2578 24.0265C21.093 23.6894 21.0107 23.2955 21.0107 22.8447C21.0107 22.3902 21.093 21.9934 21.2578 21.6544C21.4245 21.3154 21.6555 21.0521 21.951 20.8646C22.2483 20.6771 22.594 20.5834 22.9879 20.5834C23.3819 20.5834 23.7266 20.6771 24.022 20.8646C24.3194 21.0521 24.5504 21.3154 24.7152 21.6544C24.8819 21.9934 24.9652 22.3902 24.9652 22.8447C24.9652 23.2955 24.8819 23.6894 24.7152 24.0265C24.5504 24.3637 24.3194 24.626 24.022 24.8135C23.7266 25.001 23.3819 25.0947 22.9879 25.0947ZM22.9879 24.4925C23.2872 24.4925 23.5334 24.4157 23.7266 24.2623C23.9197 24.1089 24.0627 23.9072 24.1555 23.6572C24.2483 23.4072 24.2947 23.1364 24.2947 22.8447C24.2947 22.5531 24.2483 22.2813 24.1555 22.0294C24.0627 21.7775 23.9197 21.5739 23.7266 21.4186C23.5334 21.2633 23.2872 21.1856 22.9879 21.1856C22.6887 21.1856 22.4425 21.2633 22.2493 21.4186C22.0561 21.5739 21.9131 21.7775 21.8203 22.0294C21.7275 22.2813 21.6811 22.5531 21.6811 22.8447C21.6811 23.1364 21.7275 23.4072 21.8203 23.6572C21.9131 23.9072 22.0561 24.1089 22.2493 24.2623C22.4425 24.4157 22.6887 24.4925 22.9879 24.4925ZM26.6591 22.3788V25.0038H25.9886V20.6402H26.6364V21.322H26.6932C26.7955 21.1004 26.9508 20.9224 27.1591 20.7879C27.3674 20.6515 27.6364 20.5834 27.9659 20.5834C28.2614 20.5834 28.5199 20.644 28.7415 20.7652C28.9631 20.8845 29.1354 21.0663 29.2585 21.3106C29.3816 21.5531 29.4432 21.8599 29.4432 22.2311V25.0038H28.7727V22.2765C28.7727 21.9337 28.6837 21.6667 28.5057 21.4754C28.3277 21.2822 28.0833 21.1856 27.7727 21.1856C27.5587 21.1856 27.3674 21.232 27.1989 21.3248C27.0322 21.4176 26.9006 21.5531 26.804 21.7311C26.7074 21.9091 26.6591 22.125 26.6591 22.3788ZM33.0092 25.0038V19.1856H34.9751C35.4297 19.1856 35.8028 19.2633 36.0945 19.4186C36.3861 19.572 36.602 19.7832 36.7422 20.0521C36.8823 20.321 36.9524 20.6269 36.9524 20.9697C36.9524 21.3125 36.8823 21.6165 36.7422 21.8817C36.602 22.1468 36.3871 22.3551 36.0973 22.5067C35.8075 22.6563 35.4373 22.7311 34.9865 22.7311H33.3956V22.0947H34.9638C35.2744 22.0947 35.5244 22.0493 35.7138 21.9584C35.9051 21.8675 36.0433 21.7387 36.1286 21.572C36.2157 21.4034 36.2592 21.2027 36.2592 20.9697C36.2592 20.7368 36.2157 20.5332 36.1286 20.3589C36.0414 20.1847 35.9022 20.0502 35.7109 19.9555C35.5196 19.8589 35.2668 19.8106 34.9524 19.8106H33.7138V25.0038H33.0092ZM35.7479 22.3902L37.1797 25.0038H36.3615L34.9524 22.3902H35.7479ZM39.8182 25.0947C39.3977 25.0947 39.035 25.0019 38.7301 24.8163C38.4271 24.6288 38.1932 24.3675 38.0284 24.0322C37.8655 23.6951 37.7841 23.3031 37.7841 22.8561C37.7841 22.4091 37.8655 22.0152 38.0284 21.6743C38.1932 21.3315 38.4223 21.0644 38.7159 20.8731C39.0114 20.68 39.3561 20.5834 39.75 20.5834C39.9773 20.5834 40.2017 20.6212 40.4233 20.697C40.6449 20.7728 40.8466 20.8959 41.0284 21.0663C41.2102 21.2349 41.3551 21.4584 41.4631 21.7368C41.571 22.0152 41.625 22.358 41.625 22.7652V23.0493H38.2614V22.4697H40.9432C40.9432 22.2235 40.8939 22.0038 40.7955 21.8106C40.6989 21.6175 40.5606 21.465 40.3807 21.3532C40.2027 21.2415 39.9924 21.1856 39.75 21.1856C39.483 21.1856 39.2519 21.2519 39.0568 21.3845C38.8636 21.5152 38.715 21.6856 38.6108 21.8959C38.5066 22.1061 38.4545 22.3315 38.4545 22.572V22.9584C38.4545 23.2879 38.5114 23.5673 38.625 23.7964C38.7405 24.0237 38.9006 24.197 39.1051 24.3163C39.3097 24.4337 39.5473 24.4925 39.8182 24.4925C39.9943 24.4925 40.1534 24.4678 40.2955 24.4186C40.4394 24.3675 40.5634 24.2917 40.6676 24.1913C40.7718 24.089 40.8523 23.9621 40.9091 23.8106L41.5568 23.9925C41.4886 24.2121 41.3741 24.4053 41.2131 24.572C41.0521 24.7368 40.8532 24.8656 40.6165 24.9584C40.3797 25.0493 40.1136 25.0947 39.8182 25.0947ZM43.929 25.1061C43.6525 25.1061 43.4015 25.054 43.1761 24.9498C42.9508 24.8438 42.7718 24.6913 42.6392 24.4925C42.5066 24.2917 42.4403 24.0493 42.4403 23.7652C42.4403 23.5152 42.4896 23.3125 42.5881 23.1572C42.6866 23 42.8182 22.8769 42.983 22.7879C43.1477 22.6989 43.3295 22.6326 43.5284 22.589C43.7292 22.5436 43.9309 22.5076 44.1335 22.4811C44.3987 22.447 44.6136 22.4214 44.7784 22.4044C44.9451 22.3854 45.0663 22.3542 45.142 22.3106C45.2197 22.2671 45.2585 22.1913 45.2585 22.0834V22.0606C45.2585 21.7803 45.1818 21.5625 45.0284 21.4072C44.8769 21.2519 44.6468 21.1743 44.3381 21.1743C44.018 21.1743 43.767 21.2443 43.5852 21.3845C43.4034 21.5246 43.2756 21.6743 43.2017 21.8334L42.5653 21.6061C42.679 21.3409 42.8305 21.1345 43.0199 20.9868C43.2112 20.8371 43.4195 20.733 43.6449 20.6743C43.8722 20.6137 44.0956 20.5834 44.3153 20.5834C44.4555 20.5834 44.6165 20.6004 44.7983 20.6345C44.982 20.6667 45.1591 20.7339 45.3295 20.8362C45.5019 20.9385 45.6449 21.0928 45.7585 21.2993C45.8722 21.5057 45.929 21.7822 45.929 22.1288V25.0038H45.2585V24.4129H45.2244C45.179 24.5076 45.1032 24.6089 44.9972 24.7169C44.8911 24.8248 44.75 24.9167 44.5739 24.9925C44.3977 25.0682 44.1828 25.1061 43.929 25.1061ZM44.0312 24.5038C44.2964 24.5038 44.5199 24.4517 44.7017 24.3476C44.8854 24.2434 45.0237 24.1089 45.1165 23.9442C45.2112 23.7794 45.2585 23.6061 45.2585 23.4243V22.8106C45.2301 22.8447 45.1676 22.876 45.071 22.9044C44.9763 22.9309 44.8665 22.9546 44.7415 22.9754C44.6184 22.9943 44.4981 23.0114 44.3807 23.0265C44.2652 23.0398 44.1714 23.0512 44.0994 23.0606C43.9252 23.0834 43.7623 23.1203 43.6108 23.1714C43.4612 23.2207 43.34 23.2955 43.2472 23.3959C43.1563 23.4943 43.1108 23.6288 43.1108 23.7993C43.1108 24.0322 43.197 24.2084 43.3693 24.3277C43.5436 24.4451 43.7642 24.5038 44.0312 24.5038ZM48.9254 25.0947C48.5163 25.0947 48.1641 24.9981 47.8686 24.805C47.5732 24.6118 47.3459 24.3457 47.1868 24.0067C47.0277 23.6676 46.9482 23.2803 46.9482 22.8447C46.9482 22.4015 47.0296 22.0104 47.1925 21.6714C47.3572 21.3305 47.5864 21.0644 47.88 20.8731C48.1754 20.68 48.5201 20.5834 48.9141 20.5834C49.2209 20.5834 49.4974 20.6402 49.7436 20.7538C49.9898 20.8675 50.1915 21.0265 50.3487 21.2311C50.5059 21.4356 50.6035 21.6743 50.6413 21.947H49.9709C49.9197 21.7481 49.8061 21.572 49.63 21.4186C49.4557 21.2633 49.2209 21.1856 48.9254 21.1856C48.6641 21.1856 48.4349 21.2538 48.2379 21.3902C48.0429 21.5246 47.8904 21.715 47.7805 21.9612C47.6726 22.2055 47.6186 22.4925 47.6186 22.822C47.6186 23.1591 47.6716 23.4527 47.7777 23.7027C47.8857 23.9527 48.0372 24.1468 48.2322 24.2851C48.4292 24.4233 48.6603 24.4925 48.9254 24.4925C49.0997 24.4925 49.2578 24.4621 49.3999 24.4015C49.5419 24.3409 49.6622 24.2538 49.7607 24.1402C49.8591 24.0265 49.9292 23.8902 49.9709 23.7311H50.6413C50.6035 23.9887 50.5097 24.2207 50.3601 24.4271C50.2124 24.6317 50.0163 24.7945 49.772 24.9157C49.5296 25.0351 49.2474 25.0947 48.9254 25.0947ZM53.5192 20.6402V21.2084H51.2578V20.6402H53.5192ZM51.9169 19.5947H52.5874V23.7538C52.5874 23.9432 52.6148 24.0853 52.6697 24.18C52.7266 24.2728 52.7985 24.3353 52.8857 24.3675C52.9747 24.3978 53.0684 24.4129 53.1669 24.4129C53.2408 24.4129 53.3014 24.4091 53.3487 24.4015C53.3961 24.3921 53.4339 24.3845 53.4624 24.3788L53.5987 24.9811C53.5533 24.9981 53.4898 25.0152 53.4084 25.0322C53.3269 25.0512 53.2237 25.0606 53.0987 25.0606C52.9093 25.0606 52.7237 25.0199 52.5419 24.9385C52.362 24.857 52.2124 24.733 52.093 24.5663C51.9756 24.3996 51.9169 24.1894 51.9169 23.9356V19.5947ZM56.8686 25.0038V19.1856H57.5732V24.3788H60.2777V25.0038H56.8686ZM61.2777 25.0038V20.6402H61.9482V25.0038H61.2777ZM61.6186 19.9129C61.4879 19.9129 61.3752 19.8684 61.2805 19.7794C61.1877 19.6904 61.1413 19.5834 61.1413 19.4584C61.1413 19.3334 61.1877 19.2264 61.2805 19.1373C61.3752 19.0483 61.4879 19.0038 61.6186 19.0038C61.7493 19.0038 61.861 19.0483 61.9538 19.1373C62.0485 19.2264 62.0959 19.3334 62.0959 19.4584C62.0959 19.5834 62.0485 19.6904 61.9538 19.7794C61.861 19.8684 61.7493 19.9129 61.6186 19.9129ZM63.267 25.0038V19.1856H63.9375V21.3334H63.9943C64.0436 21.2576 64.1117 21.161 64.1989 21.0436C64.2879 20.9243 64.4148 20.8182 64.5795 20.7254C64.7462 20.6307 64.9716 20.5834 65.2557 20.5834C65.6231 20.5834 65.947 20.6752 66.2273 20.8589C66.5076 21.0426 66.7263 21.3031 66.8835 21.6402C67.0407 21.9773 67.1193 22.375 67.1193 22.8334C67.1193 23.2955 67.0407 23.696 66.8835 24.0351C66.7263 24.3722 66.5085 24.6335 66.2301 24.8192C65.9517 25.0029 65.6307 25.0947 65.267 25.0947C64.9867 25.0947 64.7623 25.0483 64.5938 24.9555C64.4252 24.8608 64.2955 24.7538 64.2045 24.6345C64.1136 24.5133 64.0436 24.4129 63.9943 24.3334H63.9148V25.0038H63.267ZM63.9261 22.822C63.9261 23.1515 63.9744 23.4423 64.071 23.6942C64.1676 23.9442 64.3087 24.1402 64.4943 24.2822C64.6799 24.4224 64.9072 24.4925 65.1761 24.4925C65.4564 24.4925 65.6903 24.4186 65.8778 24.2709C66.0672 24.1212 66.2093 23.9205 66.304 23.6686C66.4006 23.4148 66.4489 23.1326 66.4489 22.822C66.4489 22.5152 66.4015 22.2387 66.3068 21.9925C66.214 21.7443 66.0729 21.5483 65.8835 21.4044C65.696 21.2585 65.4602 21.1856 65.1761 21.1856C64.9034 21.1856 64.6742 21.2548 64.4886 21.393C64.303 21.5294 64.1629 21.7207 64.0682 21.9669C63.9735 22.2112 63.9261 22.4962 63.9261 22.822ZM68.1449 25.0038V20.6402H68.7926V21.2993H68.8381C68.9176 21.0834 69.0616 20.9082 69.2699 20.7737C69.4782 20.6392 69.7131 20.572 69.9744 20.572C70.0237 20.572 70.0852 20.5729 70.1591 20.5748C70.233 20.5767 70.2888 20.5796 70.3267 20.5834V21.2652C70.304 21.2595 70.2519 21.251 70.1705 21.2396C70.0909 21.2264 70.0066 21.2197 69.9176 21.2197C69.7055 21.2197 69.5161 21.2642 69.3494 21.3532C69.1847 21.4404 69.054 21.5616 68.9574 21.7169C68.8627 21.8703 68.8153 22.0455 68.8153 22.2425V25.0038H68.1449ZM72.4055 25.1061C72.129 25.1061 71.8781 25.054 71.6527 24.9498C71.4273 24.8438 71.2483 24.6913 71.1158 24.4925C70.9832 24.2917 70.9169 24.0493 70.9169 23.7652C70.9169 23.5152 70.9661 23.3125 71.0646 23.1572C71.1631 23 71.2947 22.8769 71.4595 22.7879C71.6243 22.6989 71.8061 22.6326 72.005 22.589C72.2057 22.5436 72.4074 22.5076 72.6101 22.4811C72.8752 22.447 73.0902 22.4214 73.255 22.4044C73.4216 22.3854 73.5429 22.3542 73.6186 22.3106C73.6963 22.2671 73.7351 22.1913 73.7351 22.0834V22.0606C73.7351 21.7803 73.6584 21.5625 73.505 21.4072C73.3535 21.2519 73.1233 21.1743 72.8146 21.1743C72.4946 21.1743 72.2436 21.2443 72.0618 21.3845C71.88 21.5246 71.7521 21.6743 71.6783 21.8334L71.0419 21.6061C71.1555 21.3409 71.3071 21.1345 71.4964 20.9868C71.6877 20.8371 71.8961 20.733 72.1214 20.6743C72.3487 20.6137 72.5722 20.5834 72.7919 20.5834C72.9321 20.5834 73.093 20.6004 73.2749 20.6345C73.4586 20.6667 73.6357 20.7339 73.8061 20.8362C73.9785 20.9385 74.1214 21.0928 74.2351 21.2993C74.3487 21.5057 74.4055 21.7822 74.4055 22.1288V25.0038H73.7351V24.4129H73.701C73.6555 24.5076 73.5798 24.6089 73.4737 24.7169C73.3677 24.8248 73.2266 24.9167 73.0504 24.9925C72.8743 25.0682 72.6593 25.1061 72.4055 25.1061ZM72.5078 24.5038C72.773 24.5038 72.9964 24.4517 73.1783 24.3476C73.362 24.2434 73.5002 24.1089 73.593 23.9442C73.6877 23.7794 73.7351 23.6061 73.7351 23.4243V22.8106C73.7067 22.8447 73.6442 22.876 73.5476 22.9044C73.4529 22.9309 73.343 22.9546 73.218 22.9754C73.0949 22.9943 72.9747 23.0114 72.8572 23.0265C72.7417 23.0398 72.648 23.0512 72.576 23.0606C72.4018 23.0834 72.2389 23.1203 72.0874 23.1714C71.9377 23.2207 71.8165 23.2955 71.7237 23.3959C71.6328 23.4943 71.5874 23.6288 71.5874 23.7993C71.5874 24.0322 71.6735 24.2084 71.8459 24.3277C72.0201 24.4451 72.2408 24.5038 72.5078 24.5038ZM75.6293 25.0038V20.6402H76.277V21.2993H76.3224C76.402 21.0834 76.5459 20.9082 76.7543 20.7737C76.9626 20.6392 77.1974 20.572 77.4588 20.572C77.508 20.572 77.5696 20.5729 77.6435 20.5748C77.7173 20.5767 77.7732 20.5796 77.8111 20.5834V21.2652C77.7884 21.2595 77.7363 21.251 77.6548 21.2396C77.5753 21.2264 77.491 21.2197 77.402 21.2197C77.1899 21.2197 77.0005 21.2642 76.8338 21.3532C76.669 21.4404 76.5384 21.5616 76.4418 21.7169C76.3471 21.8703 76.2997 22.0455 76.2997 22.2425V25.0038H75.6293ZM79.1705 26.6402C79.0568 26.6402 78.9555 26.6307 78.8665 26.6118C78.7775 26.5947 78.7159 26.5777 78.6818 26.5606L78.8523 25.9697C79.0152 26.0114 79.1591 26.0265 79.2841 26.0152C79.4091 26.0038 79.5199 25.9479 79.6165 25.8476C79.715 25.7491 79.8049 25.589 79.8864 25.3675L80.0114 25.0265L78.3977 20.6402H79.125L80.3295 24.1175H80.375L81.5795 20.6402H82.3068L80.4545 25.6402C80.3712 25.8656 80.268 26.0521 80.1449 26.1998C80.0218 26.3495 79.8788 26.4603 79.7159 26.5322C79.5549 26.6042 79.3731 26.6402 79.1705 26.6402Z" fill="#FFC745"/>
</svg>
