<svg width="33" height="35" viewBox="0 0 33 35" fill="none" xmlns="http://www.w3.org/2000/svg">
<path d="M24.4539 0.588582C23.7917 0.147222 22.9989 -0.0557046 22.206 0.0131524L1.67617 1.79699C1.21842 1.83694 0.792298 2.0471 0.481964 2.38596C0.171631 2.72482 -0.000346163 3.16773 5.2314e-07 3.62722V25.1131C5.2314e-07 25.8704 0.246879 26.6092 0.701654 27.2162L5.83783 34.0656C6.02339 34.3123 6.26809 34.5083 6.54936 34.6355C6.83063 34.7626 7.13941 34.8169 7.44718 34.7933L31.3053 32.9575C31.7663 32.9219 32.197 32.7137 32.5112 32.3744C32.8254 32.0351 33 31.5897 33 31.1272V7.21902C32.9999 6.93219 32.9291 6.64981 32.7937 6.39692C32.6584 6.14403 32.4627 5.92845 32.2241 5.76931L24.4539 0.588582ZM22.4919 3.29867C22.5388 3.29566 22.5853 3.30876 22.6237 3.33579L27.7209 6.73269L8.77438 8.24737L5.3218 4.79479L22.4919 3.29867ZM29.6996 29.7722L9.79717 31.3036V11.4753L29.6996 9.8827V29.7722ZM3.30223 7.43991L6.49865 10.6363V29.4436L3.34307 25.2356C3.31668 25.2002 3.30236 25.1572 3.30223 25.1131V7.43991Z" fill="white"/>
<path d="M21.7905 18.3067C21.9364 18.2904 21.9682 18.145 21.9364 18L20.8226 18.0645C20.6613 18.0809 20.5322 18.2095 20.564 18.3872L20.9839 18.4354V20.6607L19.338 18.145L18.1437 18.2254C17.9179 18.2418 17.837 18.4513 17.8693 18.5967L18.2728 18.6289V21.8055L17.9824 21.8859C17.8693 21.9182 17.837 22.0791 17.8693 22.1436L18.9826 22.0791C19.3866 22.0791 19.3866 21.7891 19.3866 21.7891L18.8858 21.6764V19.2738L20.4677 21.7569C20.6613 21.9986 20.7258 22.0791 20.9839 22.0791C21.1452 22.0791 21.3388 22.015 21.5488 21.9018V18.3549L21.7905 18.3067Z" fill="white"/>
<path d="M20.0002 16.5326C22.2545 16.5326 24.3487 16.8561 25.9278 17.3997C27.8303 18.0547 29 19.0475 29 19.9465C29 20.8833 27.7603 21.938 25.7173 22.6149C24.1727 23.1266 22.1401 23.3937 20.0002 23.3937C17.8062 23.3937 15.7285 23.143 14.1665 22.6092C12.1902 21.9338 11 20.8655 11 19.9465C11 19.0548 12.1169 18.0696 13.9927 17.4157C15.5776 16.8631 17.7235 16.5326 19.9998 16.5326H20.0002Z" stroke="#00D8FF" stroke-width="0.80199"/>
<path d="M17.0269 18.2494C18.1532 16.2966 19.4795 14.644 20.7393 13.5478C22.2571 12.2269 23.7016 11.7096 24.4803 12.1586C25.2918 12.6266 25.5862 14.2275 25.1519 16.3355C24.8239 17.9291 24.0396 19.8232 22.9705 21.6771C21.8744 23.5777 20.6193 25.2522 19.3767 26.3383C17.8043 27.7128 16.2841 28.2103 15.4881 27.7512C14.7156 27.306 14.4202 25.8461 14.7909 23.8945C15.104 22.2454 15.8898 20.2214 17.0265 18.2494H17.0269Z" stroke="#00D8FF" stroke-width="0.80199"/>
<path d="M17.0309 21.6821C15.9015 19.7314 15.1325 17.7566 14.8116 16.1177C14.4252 14.143 14.6983 12.6333 15.4764 12.1829C16.2872 11.7135 17.8211 12.258 19.4304 13.687C20.6472 14.7674 21.8967 16.3925 22.9689 18.2445C24.0681 20.1433 24.892 22.0671 25.2125 23.686C25.618 25.7348 25.2898 27.3001 24.4945 27.7605C23.7228 28.2072 22.3106 27.7343 20.8048 26.4385C19.5326 25.3437 18.1714 23.6522 17.0309 21.6821Z" stroke="#00D8FF" stroke-width="0.80199"/>
</svg>
